<svg width="1584" height="396" viewBox="0 0 1584 396" fill="none" xmlns="http://www.w3.org/2000/svg">
<rect width="1584" height="396" fill="#F5F5F5"/>
<g id="Awesome banner" clip-path="url(#clip0_0_1)">
<rect width="1584" height="396" fill="url(#paint0_linear_0_1)"/>
<ellipse id="Ellipse 2" cx="323" cy="64" rx="285" ry="288" fill="url(#paint1_linear_0_1)" fill-opacity="0.1"/>
<g id="copyright">
<path d="M75.95 334.52L72.30 334.52L72.30 311.16L77.20 311.16L83.70 330.04Q83.60 329.02 83.50 327.62Q83.41 326.23 83.33 324.79Q83.25 323.35 83.25 322.23L83.25 311.16L86.90 311.16L86.90 334.52L82 334.52L75.57 315.64Q75.63 316.57 75.73 317.88Q75.82 319.19 75.89 320.57Q75.95 321.94 75.95 323.10L75.95 334.52M98.80 334.84Q96.46 334.84 94.67 333.96Q92.88 333.08 91.89 331.53Q90.90 329.98 90.90 327.93Q90.90 325.78 92.13 324.18Q93.36 322.58 95.34 322.17L95.34 322.10Q93.65 321.75 92.61 320.38Q91.57 319 91.57 317.11Q91.57 315.26 92.48 313.85Q93.39 312.44 95.02 311.64Q96.66 310.84 98.80 310.84Q100.94 310.84 102.59 311.64Q104.24 312.44 105.15 313.85Q106.06 315.26 106.06 317.11Q106.06 319 105.01 320.38Q103.95 321.75 102.26 322.10L102.26 322.17Q104.24 322.58 105.47 324.18Q106.70 325.78 106.70 327.93Q106.70 329.98 105.71 331.53Q104.72 333.08 102.93 333.96Q101.14 334.84 98.80 334.84M98.80 320.73Q100.30 320.73 101.23 319.82Q102.16 318.90 102.16 317.46Q102.16 315.99 101.23 315.08Q100.30 314.17 98.80 314.17Q97.30 314.17 96.37 315.08Q95.44 315.99 95.44 317.46Q95.44 318.90 96.37 319.82Q97.30 320.73 98.80 320.73M98.80 331.45Q100.56 331.45 101.68 330.42Q102.80 329.40 102.80 327.74Q102.80 326.04 101.68 325Q100.56 323.96 98.80 323.96Q97.04 323.96 95.92 325Q94.80 326.04 94.80 327.74Q94.80 329.40 95.92 330.42Q97.04 331.45 98.80 331.45M114.35 334.52L110.70 334.52L110.70 311.16L115.60 311.16L122.10 330.04Q122 329.02 121.90 327.62Q121.81 326.23 121.73 324.79Q121.65 323.35 121.65 322.23L121.65 311.16L125.30 311.16L125.30 334.52L120.40 334.52L113.97 315.64Q114.03 316.57 114.13 317.88Q114.22 319.19 114.29 320.57Q114.35 321.94 114.35 323.10" fill="white" fill-opacity="0.9"/>
<path d="M161.48 325.24L151.24 325.24L151.24 322.68L161.48 322.68" fill="white" fill-opacity="0.9"/>
<path d="M195.02 334.84Q191.82 334.84 189.96 333.05Q188.11 331.26 188.11 328.12L188.11 317.56Q188.11 314.42 189.96 312.63Q191.82 310.84 195.02 310.84Q198.15 310.84 200.01 312.65Q201.87 314.46 201.87 317.56L198.99 317.56Q198.99 315.58 197.95 314.50Q196.91 313.43 195.02 313.43Q193.13 313.43 192.06 314.50Q190.99 315.58 190.99 317.56L190.99 328.12Q190.99 330.10 192.06 331.18Q193.13 332.25 195.02 332.25Q196.91 332.25 197.95 331.18Q198.99 330.10 198.99 328.12L201.87 328.12Q201.87 331.22 200.01 333.03Q198.15 334.84 195.02 334.84" fill="white" fill-opacity="0.9"/>
<path d="M213.96 334.84Q210.83 334.84 209 333.02Q207.18 331.19 207.18 327.80L207.18 317.88Q207.18 314.49 209 312.66Q210.83 310.84 213.96 310.84Q217.10 310.84 218.92 312.66Q220.75 314.49 220.75 317.85L220.75 327.80Q220.75 331.19 218.92 333.02Q217.10 334.84 213.96 334.84M213.96 332.25Q215.85 332.25 216.86 331.18Q217.87 330.10 217.87 328.12L217.87 317.56Q217.87 315.58 216.86 314.50Q215.85 313.43 213.96 313.43Q212.11 313.43 211.08 314.50Q210.06 315.58 210.06 317.56L210.06 328.12Q210.06 330.10 211.08 331.18Q212.11 332.25 213.96 332.25" fill="white" fill-opacity="0.9"/>
<path d="M228.65 334.52L225.87 334.52L225.87 311.16L230.12 311.16L233.10 321.27L236.20 311.16L240.46 311.16L240.46 334.52L237.67 334.52L237.67 323.48Q237.67 321.91 237.72 319.88Q237.77 317.85 237.87 315.77Q237.96 313.69 238.09 312.02L234.31 324.09L231.82 324.09L228.20 312.31Q228.46 314.68 228.55 317.50Q228.65 320.31 228.65 323.48" fill="white" fill-opacity="0.9"/>
<path d="M247.85 334.52L245.07 334.52L245.07 311.16L249.32 311.16L252.30 321.27L255.40 311.16L259.66 311.16L259.66 334.52L256.87 334.52L256.87 323.48Q256.87 321.91 256.92 319.88Q256.97 317.85 257.07 315.77Q257.16 313.69 257.29 312.02L253.51 324.09L251.02 324.09L247.40 312.31Q247.66 314.68 247.75 317.50Q247.85 320.31 247.85 323.48" fill="white" fill-opacity="0.9"/>
<path d="M271.56 334.84Q268.30 334.84 266.57 333.03Q264.84 331.22 264.84 328.12L264.84 311.16L267.72 311.16L267.72 328.12Q267.72 330.04 268.67 331.16Q269.61 332.28 271.56 332.28Q273.48 332.28 274.44 331.16Q275.40 330.04 275.40 328.12L275.40 311.16L278.28 311.16L278.28 328.12Q278.28 331.26 276.57 333.05Q274.86 334.84 271.56 334.84" fill="white" fill-opacity="0.9"/>
<path d="M286.83 334.52L284.04 334.52L284.04 311.16L287.88 311.16L295.02 331.16Q294.95 330.36 294.87 329.19Q294.79 328.02 294.75 326.73Q294.70 325.43 294.70 324.28L294.70 311.16L297.48 311.16L297.48 334.52L293.64 334.52L286.54 314.52Q286.60 315.29 286.67 316.46Q286.73 317.62 286.78 318.92Q286.83 320.22 286.83 321.40" fill="white" fill-opacity="0.9"/>
<path d="M316.20 334.52L303.72 334.52L303.72 331.90L308.49 331.90L308.49 313.78L303.72 313.78L303.72 311.16L316.20 311.16L316.20 313.78L311.43 313.78L311.43 331.90L316.20 331.90" fill="white" fill-opacity="0.9"/>
<path d="M330.60 334.52L327.72 334.52L327.72 313.78L321.32 313.78L321.32 311.16L337 311.16L337 313.78L330.60 313.78" fill="white" fill-opacity="0.9"/>
<path d="M349.80 334.52L346.92 334.52L346.92 325.78L339.88 311.16L342.95 311.16L347.50 320.76Q347.88 321.56 348.11 322.12Q348.33 322.68 348.39 322.94Q348.46 322.68 348.70 322.12Q348.94 321.56 349.32 320.76L353.87 311.16L356.84 311.16L349.80 325.78" fill="white" fill-opacity="0.9"/>
<path d="M382.83 334.52L380.04 334.52L380.04 311.16L383.88 311.16L391.02 331.16Q390.95 330.36 390.87 329.19Q390.79 328.02 390.75 326.73Q390.70 325.43 390.70 324.28L390.70 311.16L393.48 311.16L393.48 334.52L389.64 334.52L382.54 314.52Q382.60 315.29 382.67 316.46Q382.73 317.62 382.78 318.92Q382.83 320.22 382.83 321.40" fill="white" fill-opacity="0.9"/>
<path d="M405.96 334.84Q402.83 334.84 401 333.02Q399.18 331.19 399.18 327.80L399.18 317.88Q399.18 314.49 401 312.66Q402.83 310.84 405.96 310.84Q409.10 310.84 410.92 312.66Q412.75 314.49 412.75 317.85L412.75 327.80Q412.75 331.19 410.92 333.02Q409.10 334.84 405.96 334.84M405.96 332.25Q407.85 332.25 408.86 331.18Q409.87 330.10 409.87 328.12L409.87 317.56Q409.87 315.58 408.86 314.50Q407.85 313.43 405.96 313.43Q404.11 313.43 403.08 314.50Q402.06 315.58 402.06 317.56L402.06 328.12Q402.06 330.10 403.08 331.18Q404.11 332.25 405.96 332.25" fill="white" fill-opacity="0.9"/>
<path d="M424.55 334.52L418.51 334.52L418.51 311.16L424.55 311.16Q426.83 311.16 428.47 312.02Q430.12 312.89 431.03 314.46Q431.95 316.02 431.95 318.17L431.95 327.48Q431.95 329.62 431.03 331.21Q430.12 332.79 428.47 333.66Q426.83 334.52 424.55 334.52M421.39 313.72L421.39 331.96L424.55 331.96Q426.67 331.96 427.87 330.78Q429.07 329.59 429.07 327.48L429.07 318.17Q429.07 316.09 427.87 314.90Q426.67 313.72 424.55 313.72" fill="white" fill-opacity="0.9"/>
<path d="M451.40 334.52L437.96 334.52L437.96 311.16L451.40 311.16L451.40 313.78L440.81 313.78L440.81 321.02L450.28 321.02L450.28 323.58L440.81 323.58L440.81 331.90L451.40 331.90" fill="white" fill-opacity="0.9"/>
<path d="M463.69 334.84Q460.30 334.84 458.28 333.05Q456.27 331.26 456.27 328.12L459.15 328.12Q459.15 330.07 460.39 331.18Q461.64 332.28 463.69 332.28Q465.67 332.28 466.86 331.13Q468.04 329.98 468.04 328.12Q468.04 326.71 467.29 325.67Q466.54 324.63 465.13 324.25L461.58 323.26Q459.37 322.62 458.11 320.97Q456.84 319.32 456.84 317.08Q456.84 315.22 457.67 313.82Q458.51 312.41 460.01 311.62Q461.51 310.84 463.47 310.84Q465.45 310.84 466.97 311.62Q468.49 312.41 469.35 313.80Q470.22 315.19 470.22 317.02L467.34 317.02Q467.34 315.42 466.25 314.41Q465.16 313.40 463.47 313.40Q461.77 313.40 460.71 314.41Q459.66 315.42 459.66 317.02Q459.66 318.30 460.35 319.21Q461.03 320.12 462.28 320.47L465.93 321.50Q468.27 322.14 469.56 323.91Q470.86 325.69 470.86 328.12Q470.86 331.19 468.91 333.02Q466.95 334.84 463.69 334.84" fill="white" fill-opacity="0.9"/>
</g>
<path d="M78.66 197.64L75.71 197.64L71.20 180.12L73.41 180.12L76.41 192.05Q76.72 193.30 76.92 194.35Q77.13 195.41 77.22 195.96Q77.32 195.41 77.55 194.34Q77.78 193.27 78.09 192.02L80.97 180.12L83.20 180.12" fill="white" fill-opacity="0.7"/>
<path d="M91.60 197.88Q89.27 197.88 87.84 196.48Q86.42 195.07 86.42 192.60L86.42 189.48Q86.42 187.01 87.84 185.60Q89.27 184.20 91.60 184.20Q93.16 184.20 94.32 184.82Q95.49 185.45 96.14 186.58Q96.78 187.70 96.78 189.24L96.78 191.59L88.53 191.59L88.53 192.84Q88.53 194.30 89.37 195.16Q90.21 196.01 91.60 196.01Q92.80 196.01 93.58 195.54Q94.36 195.07 94.53 194.28L96.69 194.28Q96.47 195.94 95.08 196.91Q93.69 197.88 91.60 197.88M88.53 189.24L88.53 189.91L94.67 189.91L94.67 189.24Q94.67 187.68 93.87 186.83Q93.06 185.98 91.60 185.98Q90.14 185.98 89.33 186.83Q88.53 187.68 88.53 189.24" fill="white" fill-opacity="0.7"/>
<path d="M103.65 197.64L101.49 197.64L101.49 184.44L103.65 184.44L103.65 186.96L103.70 186.96Q103.86 185.69 104.78 184.94Q105.69 184.20 107.22 184.20Q109.29 184.20 110.40 185.44Q111.52 186.67 111.52 188.95L111.52 190.08L109.36 190.08L109.36 188.95Q109.36 186.07 106.55 186.07Q105.14 186.07 104.39 186.89Q103.65 187.70 103.65 189.24" fill="white" fill-opacity="0.7"/>
<path d="M126.52 197.64L115.24 197.64L115.24 195.67L119.92 195.67L119.92 186.41L115.72 186.41L115.72 184.44L122.08 184.44L122.08 195.67L126.52 195.67L126.52 197.64M120.76 182.06Q119.97 182.06 119.51 181.66Q119.06 181.25 119.06 180.55Q119.06 179.83 119.51 179.41Q119.97 178.99 120.76 178.99Q121.55 178.99 122.01 179.41Q122.46 179.83 122.46 180.55Q122.46 181.25 122.01 181.66Q121.55 182.06 120.76 182.06" fill="white" fill-opacity="0.7"/>
<path d="M134.92 197.64L132.76 197.64L132.76 188.21L128.92 188.21L128.92 186.24L132.76 186.24L132.76 183.48Q132.76 181.92 133.74 181.02Q134.73 180.12 136.46 180.12L140.32 180.12L140.32 182.09L136.46 182.09Q134.92 182.09 134.92 183.48L134.92 186.24L140.32 186.24L140.32 188.21L134.92 188.21" fill="white" fill-opacity="0.7"/>
<path d="M148.53 201.96L146.27 201.96L148.22 196.82L143.30 184.44L145.62 184.44L148.74 192.60Q148.94 193.08 149.10 193.61Q149.27 194.14 149.34 194.52Q149.42 194.14 149.58 193.61Q149.75 193.08 149.92 192.60L152.82 184.44L155.10 184.44" fill="white" fill-opacity="0.7"/>
<path d="M175.17 197.64L173.01 197.64L173.01 180.12L178.65 180.12Q181.10 180.12 182.55 181.52QNaN 182.93 NaN 185.28QNaN 187.63 182.55 189.04Q181.10 190.44 178.65 190.44L175.17 190.44L175.17 197.64M175.17 182.06L175.17 188.50L178.65 188.50Q180.06 188.50 180.92 187.62Q181.77 186.74 181.77 185.28Q181.77 183.79 180.92 182.93Q180.06 182.06 178.65 182.06" fill="white" fill-opacity="0.7"/>
<path d="M188.61 197.64L186.40 197.64L190.96 180.12L193.86 180.12L198.40 197.64L196.22 197.64L195.06 192.98L189.76 192.98L188.61 197.64M191.54 185.74L190.19 191.16L194.61 191.16L193.26 185.76Q192.88 184.22 192.66 183.19Q192.45 182.16 192.40 181.85Q192.35 182.16 192.14 183.19Q191.92 184.22 191.54 185.74" fill="white" fill-opacity="0.7"/>
<path d="M203.85 197.64L201.76 197.64L201.76 180.12L204.64 180.12L209.99 195.12Q209.94 194.52 209.88 193.64Q209.82 192.77 209.79 191.80Q209.75 190.82 209.75 189.96L209.75 180.12L211.84 180.12L211.84 197.64L208.96 197.64L203.63 182.64Q203.68 183.22 203.73 184.09Q203.78 184.97 203.81 185.94Q203.85 186.91 203.85 187.80" fill="white" fill-opacity="0.7"/>
<path d="M234.83 197.88Q232.86 197.88 231.68 196.56Q230.49 195.24 230.49 192.98L230.49 189.12Q230.49 186.84 231.66 185.52Q232.84 184.20 234.83 184.20Q236.32 184.20 237.29 184.94Q238.26 185.69 238.46 186.96L238.48 186.96L238.43 183.96L238.43 180.12L240.59 180.12L240.59 197.64L238.43 197.64L238.43 195.12L238.41 195.12Q238.24 196.42 237.28 197.15Q236.32 197.88 234.83 197.88M235.55 196.01Q236.90 196.01 237.66 195.17Q238.43 194.33 238.43 192.84L238.43 189.24Q238.43 187.75 237.66 186.91Q236.90 186.07 235.55 186.07Q234.18 186.07 233.42 186.78Q232.65 187.49 232.65 189.12L232.65 192.96Q232.65 194.57 233.42 195.29Q234.18 196.01 235.55 196.01" fill="white" fill-opacity="0.7"/>
<path d="M248.85 197.88Q246.81 197.88 245.61 196.74Q244.41 195.60 244.41 193.75Q244.41 192.53 244.96 191.62Q245.51 190.70 246.50 190.19Q247.48 189.67 248.75 189.67L252.83 189.67L252.83 188.64Q252.83 186.07 250.02 186.07Q248.78 186.07 248.01 186.53Q247.24 186.98 247.19 187.80L245.03 187.80Q245.15 186.24 246.48 185.22Q247.82 184.20 250.02 184.20Q252.42 184.20 253.71 185.35Q254.99 186.50 254.99 188.57L254.99 197.64L252.86 197.64L252.86 195.24L252.81 195.24Q252.62 196.46 251.58 197.17Q250.55 197.88 248.85 197.88M249.38 196.06Q250.96 196.06 251.90 195.29Q252.83 194.52 252.83 193.20L252.83 191.35L248.99 191.35Q247.94 191.35 247.28 191.99Q246.62 192.62 246.62 193.68Q246.62 194.78 247.35 195.42Q248.08 196.06 249.38 196.06" fill="white" fill-opacity="0.7"/>
<path d="M269.56 197.64L265.72 197.64Q264.09 197.64 263.10 196.69Q262.12 195.74 262.12 194.16L262.12 186.41L258.33 186.41L258.33 184.44L262.12 184.44L262.12 180.72L264.28 180.72L264.28 184.44L269.68 184.44L269.68 186.41L264.28 186.41L264.28 194.16Q264.28 194.83 264.68 195.25Q265.07 195.67 265.72 195.67L269.56 195.67" fill="white" fill-opacity="0.7"/>
<path d="M277.65 197.88Q275.61 197.88 274.41 196.74Q273.21 195.60 273.21 193.75Q273.21 192.53 273.76 191.62Q274.31 190.70 275.30 190.19Q276.28 189.67 277.55 189.67L281.63 189.67L281.63 188.64Q281.63 186.07 278.82 186.07Q277.58 186.07 276.81 186.53Q276.04 186.98 275.99 187.80L273.83 187.80Q273.95 186.24 275.28 185.22Q276.62 184.20 278.82 184.20Q281.22 184.20 282.51 185.35Q283.79 186.50 283.79 188.57L283.79 197.64L281.66 197.64L281.66 195.24L281.61 195.24Q281.42 196.46 280.38 197.17Q279.35 197.88 277.65 197.88M278.18 196.06Q279.76 196.06 280.70 195.29Q281.63 194.52 281.63 193.20L281.63 191.35L277.79 191.35Q276.74 191.35 276.08 191.99Q275.42 192.62 275.42 193.68Q275.42 194.78 276.15 195.42Q276.88 196.06 278.18 196.06" fill="white" fill-opacity="0.7"/>
<path d="M313.72 197.64L302.44 197.64L302.44 195.67L307.12 195.67L307.12 186.41L302.92 186.41L302.92 184.44L309.28 184.44L309.28 195.67L313.72 195.67L313.72 197.64M307.96 182.06Q307.17 182.06 306.71 181.66Q306.26 181.25 306.26 180.55Q306.26 179.83 306.71 179.41Q307.17 178.99 307.96 178.99Q308.75 178.99 309.21 179.41Q309.66 179.83 309.66 180.55Q309.66 181.25 309.21 181.66Q308.75 182.06 307.96 182.06" fill="white" fill-opacity="0.7"/>
<path d="M319.17 197.64L317.01 197.64L317.01 184.44L319.17 184.44L319.17 186.96L319.19 186.96Q319.36 185.64 320.27 184.92Q321.18 184.20 322.70 184.20Q324.69 184.20 325.86 185.42Q327.04 186.65 327.04 188.76L327.04 197.64L324.88 197.64L324.88 189.14Q324.88 187.63 324.12 186.83Q323.37 186.02 322.07 186.02Q320.73 186.02 319.95 186.86Q319.17 187.70 319.17 189.24" fill="white" fill-opacity="0.7"/>
<path d="M348.45 197.64L346.29 197.64L346.29 184.44L348.45 184.44L348.45 186.96L348.50 186.96Q348.66 185.69 349.58 184.94Q350.49 184.20 352.02 184.20Q354.09 184.20 355.20 185.44Q356.32 186.67 356.32 188.95L356.32 190.08L354.16 190.08L354.16 188.95Q354.16 186.07 351.35 186.07Q349.94 186.07 349.19 186.89Q348.45 187.70 348.45 189.24" fill="white" fill-opacity="0.7"/>
<path d="M365.20 197.88Q362.87 197.88 361.44 196.48Q360.02 195.07 360.02 192.60L360.02 189.48Q360.02 187.01 361.44 185.60Q362.87 184.20 365.20 184.20Q366.76 184.20 367.92 184.82Q369.09 185.45 369.74 186.58Q370.38 187.70 370.38 189.24L370.38 191.59L362.13 191.59L362.13 192.84Q362.13 194.30 362.97 195.16Q363.81 196.01 365.20 196.01Q366.40 196.01 367.18 195.54Q367.96 195.07 368.13 194.28L370.29 194.28Q370.07 195.94 368.68 196.91Q367.29 197.88 365.20 197.88M362.13 189.24L362.13 189.91L368.27 189.91L368.27 189.24Q368.27 187.68 367.47 186.83Q366.66 185.98 365.20 185.98Q363.74 185.98 362.93 186.83Q362.13 187.68 362.13 189.24" fill="white" fill-opacity="0.7"/>
<path d="M378.45 197.88Q376.41 197.88 375.21 196.74Q374.01 195.60 374.01 193.75Q374.01 192.53 374.56 191.62Q375.11 190.70 376.10 190.19Q377.08 189.67 378.35 189.67L382.43 189.67L382.43 188.64Q382.43 186.07 379.62 186.07Q378.38 186.07 377.61 186.53Q376.84 186.98 376.79 187.80L374.63 187.80Q374.75 186.24 376.08 185.22Q377.42 184.20 379.62 184.20Q382.02 184.20 383.31 185.35Q384.59 186.50 384.59 188.57L384.59 197.64L382.46 197.64L382.46 195.24L382.41 195.24Q382.22 196.46 381.18 197.17Q380.15 197.88 378.45 197.88M378.98 196.06Q380.56 196.06 381.50 195.29Q382.43 194.52 382.43 193.20L382.43 191.35L378.59 191.35Q377.54 191.35 376.88 191.99Q376.22 192.62 376.22 193.68Q376.22 194.78 376.95 195.42Q377.68 196.06 378.98 196.06" fill="white" fill-opacity="0.7"/>
<path d="M400 197.64L395.92 197.64Q394.17 197.64 393.12 196.62Q392.08 195.60 392.08 193.92L392.08 182.09L387.52 182.09L387.52 180.12L394.24 180.12L394.24 193.92Q394.24 194.74 394.70 195.20Q395.15 195.67 395.92 195.67L400 195.67" fill="white" fill-opacity="0.7"/>
<path d="M412.24 190.68L404.56 190.68L404.56 188.76L412.24 188.76" fill="white" fill-opacity="0.7"/>
<path d="M427.96 197.64L424.12 197.64Q422.49 197.64 421.50 196.69Q420.52 195.74 420.52 194.16L420.52 186.41L416.73 186.41L416.73 184.44L420.52 184.44L420.52 180.72L422.68 180.72L422.68 184.44L428.08 184.44L428.08 186.41L422.68 186.41L422.68 194.16Q422.68 194.83 423.08 195.25Q423.47 195.67 424.12 195.67L427.96 195.67" fill="white" fill-opacity="0.7"/>
<path d="M443.32 197.64L432.04 197.64L432.04 195.67L436.72 195.67L436.72 186.41L432.52 186.41L432.52 184.44L438.88 184.44L438.88 195.67L443.32 195.67L443.32 197.64M437.56 182.06Q436.77 182.06 436.31 181.66Q435.86 181.25 435.86 180.55Q435.86 179.83 436.31 179.41Q436.77 178.99 437.56 178.99Q438.35 178.99 438.81 179.41Q439.26 179.83 439.26 180.55Q439.26 181.25 438.81 181.66Q438.35 182.06 437.56 182.06" fill="white" fill-opacity="0.7"/>
<path d="M447.86 197.64L445.84 197.64L445.84 184.44L447.71 184.44L447.71 186.19L447.76 186.19Q447.88 185.30 448.47 184.75Q449.06 184.20 449.97 184.20Q450.83 184.20 451.43 184.70Q452.03 185.21 452.30 186.07L452.32 186.07Q452.49 185.21 453.08 184.70Q453.66 184.20 454.58 184.20Q455.85 184.20 456.60 185.15Q457.36 186.10 457.36 187.61L457.36 197.64L455.34 197.64L455.34 187.58Q455.34 186.79 454.96 186.32Q454.58 185.86 453.90 185.86Q453.26 185.86 452.87 186.31Q452.49 186.77 452.49 187.56L452.49 197.64L450.71 197.64L450.71 187.58Q450.71 186.79 450.33 186.32Q449.94 185.86 449.30 185.86Q448.62 185.86 448.24 186.31Q447.86 186.77 447.86 187.56" fill="white" fill-opacity="0.7"/>
<path d="M466 197.88Q463.67 197.88 462.24 196.48Q460.82 195.07 460.82 192.60L460.82 189.48Q460.82 187.01 462.24 185.60Q463.67 184.20 466 184.20Q467.56 184.20 468.72 184.82Q469.89 185.45 470.54 186.58Q471.18 187.70 471.18 189.24L471.18 191.59L462.93 191.59L462.93 192.84Q462.93 194.30 463.77 195.16Q464.61 196.01 466 196.01Q467.20 196.01 467.98 195.54Q468.76 195.07 468.93 194.28L471.09 194.28Q470.87 195.94 469.48 196.91Q468.09 197.88 466 197.88M462.93 189.24L462.93 189.91L469.07 189.91L469.07 189.24Q469.07 187.68 468.27 186.83Q467.46 185.98 466 185.98Q464.54 185.98 463.73 186.83Q462.93 187.68 462.93 189.24" fill="white" fill-opacity="0.7"/>
<path d="M496.22 197.64L493.38 197.64L488.90 184.44L491.22 184.44L494.10 193.32Q494.37 194.11 494.56 194.84Q494.75 195.58 494.85 195.98Q494.97 195.58 495.14 194.84Q495.30 194.11 495.54 193.32L498.42 184.44L500.70 184.44" fill="white" fill-opacity="0.7"/>
<path d="M515.32 197.64L504.04 197.64L504.04 195.67L508.72 195.67L508.72 186.41L504.52 186.41L504.52 184.44L510.88 184.44L510.88 195.67L515.32 195.67L515.32 197.64M509.56 182.06Q508.77 182.06 508.31 181.66Q507.86 181.25 507.86 180.55Q507.86 179.83 508.31 179.41Q508.77 178.99 509.56 178.99Q510.35 178.99 510.81 179.41Q511.26 179.83 511.26 180.55Q511.26 181.25 510.81 181.66Q510.35 182.06 509.56 182.06" fill="white" fill-opacity="0.7"/>
<path d="M522.45 197.88Q520.41 197.88 519.21 196.74Q518.01 195.60 518.01 193.75Q518.01 192.53 518.56 191.62Q519.11 190.70 520.10 190.19Q521.08 189.67 522.35 189.67L526.43 189.67L526.43 188.64Q526.43 186.07 523.62 186.07Q522.38 186.07 521.61 186.53Q520.84 186.98 520.79 187.80L518.63 187.80Q518.75 186.24 520.08 185.22Q521.42 184.20 523.62 184.20Q526.02 184.20 527.31 185.35Q528.59 186.50 528.59 188.57L528.59 197.64L526.46 197.64L526.46 195.24L526.41 195.24Q526.22 196.46 525.18 197.17Q524.15 197.88 522.45 197.88M522.98 196.06Q524.56 196.06 525.50 195.29Q526.43 194.52 526.43 193.20L526.43 191.35L522.59 191.35Q521.54 191.35 520.88 191.99Q520.22 192.62 520.22 193.68Q520.22 194.78 520.95 195.42Q521.68 196.06 522.98 196.06" fill="white" fill-opacity="0.7"/>
<path d="M551.94 197.64L547.41 197.64L547.41 180.12L551.94 180.12Q553.65 180.12 554.88 180.77Q556.12 181.42 556.80 182.59Q557.49 183.77 557.49 185.38L557.49 192.36Q557.49 193.97 556.80 195.16Q556.12 196.34 554.88 196.99Q553.65 197.64 551.94 197.64M549.57 182.04L549.57 195.72L551.94 195.72Q553.53 195.72 554.43 194.83Q555.33 193.94 555.33 192.36L555.33 185.38Q555.33 183.82 554.43 182.93Q553.53 182.04 551.94 182.04" fill="white" fill-opacity="0.7"/>
<path d="M572.92 197.64L561.64 197.64L561.64 195.67L566.32 195.67L566.32 186.41L562.12 186.41L562.12 184.44L568.48 184.44L568.48 195.67L572.92 195.67L572.92 197.64M567.16 182.06Q566.37 182.06 565.91 181.66Q565.46 181.25 565.46 180.55Q565.46 179.83 565.91 179.41Q566.37 178.99 567.16 178.99Q567.95 178.99 568.41 179.41Q568.86 179.83 568.86 180.55Q568.86 181.25 568.41 181.66Q567.95 182.06 567.16 182.06" fill="white" fill-opacity="0.7"/>
<path d="M581.56 201.96L577.86 201.96L577.86 199.99L581.58 199.99Q582.71 199.99 583.36 199.36Q584.01 198.72 584.01 197.64L584.01 196.44L584.06 194.28L583.98 194.28Q583.79 195.46 582.86 196.09Q581.92 196.73 580.50 196.73Q578.46 196.73 577.29 195.43Q576.11 194.14 576.11 191.88L576.11 189.10Q576.11 186.84 577.29 185.52Q578.46 184.20 580.50 184.20Q581.92 184.20 582.86 184.87Q583.79 185.54 583.98 186.72L584.03 186.72L584.03 184.44L586.17 184.44L586.17 197.64Q586.17 199.63 584.93 200.80Q583.70 201.96 581.56 201.96M581.15 194.93Q582.50 194.93 583.26 194.09Q584.03 193.25 584.03 191.76L584.03 189.24Q584.03 187.75 583.26 186.91Q582.50 186.07 581.15 186.07Q579.78 186.07 579.03 186.86Q578.27 187.66 578.27 189L578.27 192Q578.27 193.34 579.03 194.14Q579.78 194.93 581.15 194.93" fill="white" fill-opacity="0.7"/>
<path d="M601.72 197.64L590.44 197.64L590.44 195.67L595.12 195.67L595.12 186.41L590.92 186.41L590.92 184.44L597.28 184.44L597.28 195.67L601.72 195.67L601.72 197.64M595.96 182.06Q595.17 182.06 594.71 181.66Q594.26 181.25 594.26 180.55Q594.26 179.83 594.71 179.41Q595.17 178.99 595.96 178.99Q596.75 178.99 597.21 179.41Q597.66 179.83 597.66 180.55Q597.66 181.25 597.21 181.66Q596.75 182.06 595.96 182.06" fill="white" fill-opacity="0.7"/>
<path d="M616 197.64L605.92 197.64L605.92 180.12L608.08 180.12L608.08 195.67L616 195.67" fill="white" fill-opacity="0.7"/>
<path d="M624.40 197.83Q622.02 197.83 620.62 196.44Q619.22 195.05 619.22 192.55L619.22 189.53Q619.22 187.01 620.61 185.63Q622 184.25 624.40 184.25Q626.80 184.25 628.19 185.63Q629.58 187.01 629.58 189.53L629.58 192.55Q629.58 195.05 628.18 196.44Q626.78 197.83 624.40 197.83M624.40 195.91Q625.82 195.91 626.62 195.12Q627.42 194.33 627.42 192.79L627.42 189.29Q627.42 187.75 626.62 186.96Q625.82 186.17 624.40 186.17Q623.01 186.17 622.19 186.96Q621.38 187.75 621.38 189.29L621.38 192.79Q621.38 194.33 622.19 195.12Q623.01 195.91 624.40 195.91" fill="white" fill-opacity="0.7"/>
<path d="M638.99 197.88Q636.59 197.88 635.15 196.54Q633.71 195.19 633.71 192.84L633.71 189.24Q633.71 186.89 635.15 185.54Q636.59 184.20 638.99 184.20Q641.27 184.20 642.68 185.42Q644.08 186.65 644.15 188.76L641.99 188.76Q641.92 187.49 641.13 186.80Q640.34 186.12 638.99 186.12Q637.58 186.12 636.72 186.92Q635.87 187.73 635.87 189.22L635.87 192.84Q635.87 194.33 636.72 195.14Q637.58 195.96 638.99 195.96Q640.34 195.96 641.13 195.26Q641.92 194.57 641.99 193.32L644.15 193.32Q644.08 195.43 642.68 196.66Q641.27 197.88 638.99 197.88" fill="white" fill-opacity="0.7"/>
<path d="M650.49 197.64L648.33 197.64L648.33 180.12L650.49 180.12L650.49 189.89L653.01 189.89L656.70 184.44L659.18 184.44L654.93 190.73L659.42 197.64L656.90 197.64L653.06 191.76L650.49 191.76" fill="white" fill-opacity="0.7"/>
<path d="M667.60 197.88Q665.27 197.88 663.84 196.48Q662.42 195.07 662.42 192.60L662.42 189.48Q662.42 187.01 663.84 185.60Q665.27 184.20 667.60 184.20Q669.16 184.20 670.32 184.82Q671.49 185.45 672.14 186.58Q672.78 187.70 672.78 189.24L672.78 191.59L664.53 191.59L664.53 192.84Q664.53 194.30 665.37 195.16Q666.21 196.01 667.60 196.01Q668.80 196.01 669.58 195.54Q670.36 195.07 670.53 194.28L672.69 194.28Q672.47 195.94 671.08 196.91Q669.69 197.88 667.60 197.88M664.53 189.24L664.53 189.91L670.67 189.91L670.67 189.24Q670.67 187.68 669.87 186.83Q669.06 185.98 667.60 185.98Q666.14 185.98 665.33 186.83Q664.53 187.68 664.53 189.24" fill="white" fill-opacity="0.7"/>
<path d="M679.65 197.64L677.49 197.64L677.49 184.44L679.65 184.44L679.65 186.96L679.70 186.96Q679.86 185.69 680.78 184.94Q681.69 184.20 683.22 184.20Q685.29 184.20 686.40 185.44Q687.52 186.67 687.52 188.95L687.52 190.08L685.36 190.08L685.36 188.95Q685.36 186.07 682.55 186.07Q681.14 186.07 680.39 186.89Q679.65 187.70 679.65 189.24" fill="white" fill-opacity="0.7"/>
<path d="M710.78 197.88Q708.50 197.88 707.13 196.52Q705.76 195.17 705.76 192.84L705.76 184.44L707.92 184.44L707.92 192.84Q707.92 194.28 708.69 195.13Q709.46 195.98 710.78 195.98Q712.12 195.98 712.90 195.13Q713.68 194.28 713.68 192.84L713.68 184.44L715.84 184.44L715.84 192.84Q715.84 195.17 714.45 196.52Q713.06 197.88 710.78 197.88" fill="white" fill-opacity="0.7"/>
<path d="M725.73 197.83L724.67 197.83Q722.46 197.83 721.25 196.84Q720.04 195.84 720.04 194.02L722.20 194.02Q722.20 194.93 722.85 195.44Q723.50 195.96 724.67 195.96L725.73 195.96Q726.93 195.96 727.59 195.43Q728.25 194.90 728.25 193.94Q728.25 192.24 726.69 192.02L723.04 191.50Q721.70 191.30 720.95 190.38Q720.21 189.46 720.21 187.94Q720.21 186.22 721.40 185.23Q722.58 184.25 724.67 184.25L725.73 184.25Q727.65 184.25 728.86 185.20Q730.07 186.14 730.17 187.68L727.98 187.68Q727.94 186.98 727.32 186.53Q726.71 186.07 725.73 186.07L724.67 186.07Q723.57 186.07 722.94 186.58Q722.32 187.08 722.32 187.94Q722.32 189.34 723.59 189.53L727 190.01Q730.36 190.49 730.36 193.94Q730.36 195.79 729.15 196.81Q727.94 197.83 725.73 197.83" fill="white" fill-opacity="0.7"/>
<path d="M745.72 197.64L734.44 197.64L734.44 195.67L739.12 195.67L739.12 186.41L734.92 186.41L734.92 184.44L741.28 184.44L741.28 195.67L745.72 195.67L745.72 197.64M739.96 182.06Q739.17 182.06 738.71 181.66Q738.26 181.25 738.26 180.55Q738.26 179.83 738.71 179.41Q739.17 178.99 739.96 178.99Q740.75 178.99 741.21 179.41Q741.66 179.83 741.66 180.55Q741.66 181.25 741.21 181.66Q740.75 182.06 739.96 182.06" fill="white" fill-opacity="0.7"/>
<path d="M751.17 197.64L749.01 197.64L749.01 184.44L751.17 184.44L751.17 186.96L751.19 186.96Q751.36 185.64 752.27 184.92Q753.18 184.20 754.70 184.20Q756.69 184.20 757.86 185.42Q759.04 186.65 759.04 188.76L759.04 197.64L756.88 197.64L756.88 189.14Q756.88 187.63 756.12 186.83Q755.37 186.02 754.07 186.02Q752.73 186.02 751.95 186.86Q751.17 187.70 751.17 189.24" fill="white" fill-opacity="0.7"/>
<path d="M768.76 201.96L765.06 201.96L765.06 199.99L768.78 199.99Q769.91 199.99 770.56 199.36Q771.21 198.72 771.21 197.64L771.21 196.44L771.26 194.28L771.18 194.28Q770.99 195.46 770.06 196.09Q769.12 196.73 767.70 196.73Q765.66 196.73 764.49 195.43Q763.31 194.14 763.31 191.88L763.31 189.10Q763.31 186.84 764.49 185.52Q765.66 184.20 767.70 184.20Q769.12 184.20 770.06 184.87Q770.99 185.54 771.18 186.72L771.23 186.72L771.23 184.44L773.37 184.44L773.37 197.64Q773.37 199.63 772.13 200.80Q770.90 201.96 768.76 201.96M768.35 194.93Q769.70 194.93 770.46 194.09Q771.23 193.25 771.23 191.76L771.23 189.24Q771.23 187.75 770.46 186.91Q769.70 186.07 768.35 186.07Q766.98 186.07 766.23 186.86Q765.47 187.66 765.47 189L765.47 192Q765.47 193.34 766.23 194.14Q766.98 194.93 768.35 194.93" fill="white" fill-opacity="0.7"/>
<path d="M801.88 197.64L792.52 197.64L792.52 195.67L796.10 195.67L796.10 182.09L792.52 182.09L792.52 180.12L801.88 180.12L801.88 182.09L798.30 182.09L798.30 195.67L801.88 195.67" fill="white" fill-opacity="0.7"/>
<path d="M808.77 197.64L806.61 197.64L806.61 184.44L808.77 184.44L808.77 186.96L808.79 186.96Q808.96 185.64 809.87 184.92Q810.78 184.20 812.30 184.20Q814.29 184.20 815.46 185.42Q816.64 186.65 816.64 188.76L816.64 197.64L814.48 197.64L814.48 189.14Q814.48 187.63 813.72 186.83Q812.97 186.02 811.67 186.02Q810.33 186.02 809.55 186.86Q808.77 187.70 808.77 189.24" fill="white" fill-opacity="0.7"/>
<path d="M826.19 197.88Q823.79 197.88 822.35 196.54Q820.91 195.19 820.91 192.84L820.91 189.24Q820.91 186.89 822.35 185.54Q823.79 184.20 826.19 184.20Q828.47 184.20 829.88 185.42Q831.28 186.65 831.35 188.76L829.19 188.76Q829.12 187.49 828.33 186.80Q827.54 186.12 826.19 186.12Q824.78 186.12 823.92 186.92Q823.07 187.73 823.07 189.22L823.07 192.84Q823.07 194.33 823.92 195.14Q824.78 195.96 826.19 195.96Q827.54 195.96 828.33 195.26Q829.12 194.57 829.19 193.32L831.35 193.32Q831.28 195.43 829.88 196.66Q828.47 197.88 826.19 197.88" fill="white" fill-opacity="0.7"/>
<path d="M840.40 197.83Q838.02 197.83 836.62 196.44Q835.22 195.05 835.22 192.55L835.22 189.53Q835.22 187.01 836.61 185.63Q838 184.25 840.40 184.25Q842.80 184.25 844.19 185.63Q845.58 187.01 845.58 189.53L845.58 192.55Q845.58 195.05 844.18 196.44Q842.78 197.83 840.40 197.83M840.40 195.91Q841.82 195.91 842.62 195.12Q843.42 194.33 843.42 192.79L843.42 189.29Q843.42 187.75 842.62 186.96Q841.82 186.17 840.40 186.17Q839.01 186.17 838.19 186.96Q837.38 187.75 837.38 189.29L837.38 192.79Q837.38 194.33 838.19 195.12Q839.01 195.91 840.40 195.91" fill="white" fill-opacity="0.7"/>
<path d="M851.06 197.64L849.04 197.64L849.04 184.44L850.91 184.44L850.91 186.19L850.96 186.19Q851.08 185.30 851.67 184.75Q852.26 184.20 853.17 184.20Q854.03 184.20 854.63 184.70Q855.23 185.21 855.50 186.07L855.52 186.07Q855.69 185.21 856.28 184.70Q856.86 184.20 857.78 184.20Q859.05 184.20 859.80 185.15Q860.56 186.10 860.56 187.61L860.56 197.64L858.54 197.64L858.54 187.58Q858.54 186.79 858.16 186.32Q857.78 185.86 857.10 185.86Q856.46 185.86 856.07 186.31Q855.69 186.77 855.69 187.56L855.69 197.64L853.91 197.64L853.91 187.58Q853.91 186.79 853.53 186.32Q853.14 185.86 852.50 185.86Q851.82 185.86 851.44 186.31Q851.06 186.77 851.06 187.56" fill="white" fill-opacity="0.7"/>
<path d="M869.20 197.88Q866.87 197.88 865.44 196.48Q864.02 195.07 864.02 192.60L864.02 189.48Q864.02 187.01 865.44 185.60Q866.87 184.20 869.20 184.20Q870.76 184.20 871.92 184.82Q873.09 185.45 873.74 186.58Q874.38 187.70 874.38 189.24L874.38 191.59L866.13 191.59L866.13 192.84Q866.13 194.30 866.97 195.16Q867.81 196.01 869.20 196.01Q870.40 196.01 871.18 195.54Q871.96 195.07 872.13 194.28L874.29 194.28Q874.07 195.94 872.68 196.91Q871.29 197.88 869.20 197.88M866.13 189.24L866.13 189.91L872.27 189.91L872.27 189.24Q872.27 187.68 871.47 186.83Q870.66 185.98 869.20 185.98Q867.74 185.98 866.93 186.83Q866.13 187.68 866.13 189.24" fill="white" fill-opacity="0.7"/>
<path d="M899.08 197.64L896.92 197.64L896.92 182.09L892.12 182.09L892.12 180.12L903.88 180.12L903.88 182.09L899.08 182.09" fill="white" fill-opacity="0.7"/>
<path d="M911.25 197.88Q909.21 197.88 908.01 196.74Q906.81 195.60 906.81 193.75Q906.81 192.53 907.36 191.62Q907.91 190.70 908.90 190.19Q909.88 189.67 911.15 189.67L915.23 189.67L915.23 188.64Q915.23 186.07 912.42 186.07Q911.18 186.07 910.41 186.53Q909.64 186.98 909.59 187.80L907.43 187.80Q907.55 186.24 908.88 185.22Q910.22 184.20 912.42 184.20Q914.82 184.20 916.11 185.35Q917.39 186.50 917.39 188.57L917.39 197.64L915.26 197.64L915.26 195.24L915.21 195.24Q915.02 196.46 913.98 197.17Q912.95 197.88 911.25 197.88M911.78 196.06Q913.36 196.06 914.30 195.29Q915.23 194.52 915.23 193.20L915.23 191.35L911.39 191.35Q910.34 191.35 909.68 191.99Q909.02 192.62 909.02 193.68Q909.02 194.78 909.75 195.42Q910.48 196.06 911.78 196.06" fill="white" fill-opacity="0.7"/>
<path d="M923.34 197.64L920.80 197.64L925.48 190.85L921.09 184.44L923.63 184.44L926.25 188.52Q926.42 188.78 926.57 189.10Q926.73 189.41 926.82 189.60Q926.90 189.41 927.05 189.10Q927.21 188.78 927.38 188.52L929.99 184.44L932.54 184.44L928.14 190.87L932.80 197.64L930.26 197.64L927.42 193.32Q927.26 193.06 927.10 192.71Q926.94 192.36 926.82 192.14Q926.73 192.36 926.55 192.71Q926.37 193.06 926.18 193.32" fill="white" fill-opacity="0.7"/>
<path d="M955.14 197.64L950.61 197.64L950.61 180.12L955.14 180.12Q956.85 180.12 958.08 180.77Q959.32 181.42 960 182.59Q960.69 183.77 960.69 185.38L960.69 192.36Q960.69 193.97 960 195.16Q959.32 196.34 958.08 196.99Q956.85 197.64 955.14 197.64M952.77 182.04L952.77 195.72L955.14 195.72Q956.73 195.72 957.63 194.83Q958.53 193.94 958.53 192.36L958.53 185.38Q958.53 183.82 957.63 182.93Q956.73 182.04 955.14 182.04" fill="white" fill-opacity="0.7"/>
<path d="M970 197.88Q967.67 197.88 966.24 196.48Q964.82 195.07 964.82 192.60L964.82 189.48Q964.82 187.01 966.24 185.60Q967.67 184.20 970 184.20Q971.56 184.20 972.72 184.82Q973.89 185.45 974.54 186.58Q975.18 187.70 975.18 189.24L975.18 191.59L966.93 191.59L966.93 192.84Q966.93 194.30 967.77 195.16Q968.61 196.01 970 196.01Q971.20 196.01 971.98 195.54Q972.76 195.07 972.93 194.28L975.09 194.28Q974.87 195.94 973.48 196.91Q972.09 197.88 970 197.88M966.93 189.24L966.93 189.91L973.07 189.91L973.07 189.24Q973.07 187.68 972.27 186.83Q971.46 185.98 970 185.98Q968.54 185.98 967.73 186.83Q966.93 187.68 966.93 189.24" fill="white" fill-opacity="0.7"/>
<path d="M981.57 201.96L979.41 201.96L979.41 184.44L981.57 184.44L981.57 186.96L981.59 186.96Q981.76 185.66 982.72 184.93Q983.68 184.20 985.17 184.20Q987.16 184.20 988.34 185.51Q989.51 186.82 989.51 189.10L989.51 192.96Q989.51 195.24 988.34 196.56Q987.16 197.88 985.17 197.88Q983.68 197.88 982.72 197.14Q981.76 196.39 981.59 195.12L981.52 195.12L981.57 198.12L981.57 201.96M984.45 196.01Q985.82 196.01 986.58 195.29Q987.35 194.57 987.35 192.96L987.35 189.12Q987.35 187.49 986.58 186.78Q985.82 186.07 984.45 186.07Q983.13 186.07 982.35 186.91Q981.57 187.75 981.57 189.24L981.57 192.84Q981.57 194.33 982.35 195.17Q983.13 196.01 984.45 196.01" fill="white" fill-opacity="0.7"/>
<path d="M997.65 197.88Q995.61 197.88 994.41 196.74Q993.21 195.60 993.21 193.75Q993.21 192.53 993.76 191.62Q994.31 190.70 995.30 190.19Q996.28 189.67 997.55 189.67L1001.63 189.67L1001.63 188.64Q1001.63 186.07 998.82 186.07Q997.58 186.07 996.81 186.53Q996.04 186.98 995.99 187.80L993.83 187.80Q993.95 186.24 995.28 185.22Q996.62 184.20 998.82 184.20Q1001.22 184.20 1002.51 185.35Q1003.79 186.50 1003.79 188.57L1003.79 197.64L1001.66 197.64L1001.66 195.24L1001.61 195.24Q1001.42 196.46 1000.38 197.17Q999.35 197.88 997.65 197.88M998.18 196.06Q999.76 196.06 1000.70 195.29Q1001.63 194.52 1001.63 193.20L1001.63 191.35L997.79 191.35Q996.74 191.35 996.08 191.99Q995.42 192.62 995.42 193.68Q995.42 194.78 996.15 195.42Q996.88 196.06 998.18 196.06" fill="white" fill-opacity="0.7"/>
<path d="M1010.85 197.64L1008.69 197.64L1008.69 184.44L1010.85 184.44L1010.85 186.96L1010.90 186.96Q1011.06 185.69 1011.98 184.94Q1012.89 184.20 1014.42 184.20Q1016.49 184.20 1017.60 185.44Q1018.72 186.67 1018.72 188.95L1018.72 190.08L1016.56 190.08L1016.56 188.95Q1016.56 186.07 1013.75 186.07Q1012.34 186.07 1011.59 186.89Q1010.85 187.70 1010.85 189.24" fill="white" fill-opacity="0.7"/>
<path d="M1032.76 197.64L1028.92 197.64Q1027.29 197.64 1026.30 196.69Q1025.32 195.74 1025.32 194.16L1025.32 186.41L1021.53 186.41L1021.53 184.44L1025.32 184.44L1025.32 180.72L1027.48 180.72L1027.48 184.44L1032.88 184.44L1032.88 186.41L1027.48 186.41L1027.48 194.16Q1027.48 194.83 1027.88 195.25Q1028.27 195.67 1028.92 195.67L1032.76 195.67" fill="white" fill-opacity="0.7"/>
<path d="M1038.26 197.64L1036.24 197.64L1036.24 184.44L1038.11 184.44L1038.11 186.19L1038.16 186.19Q1038.28 185.30 1038.87 184.75Q1039.46 184.20 1040.37 184.20Q1041.23 184.20 1041.83 184.70Q1042.43 185.21 1042.70 186.07L1042.72 186.07Q1042.89 185.21 1043.48 184.70Q1044.06 184.20 1044.98 184.20Q1046.25 184.20 1047 185.15Q1047.76 186.10 1047.76 187.61L1047.76 197.64L1045.74 197.64L1045.74 187.58Q1045.74 186.79 1045.36 186.32Q1044.98 185.86 1044.30 185.86Q1043.66 185.86 1043.27 186.31Q1042.89 186.77 1042.89 187.56L1042.89 197.64L1041.11 197.64L1041.11 187.58Q1041.11 186.79 1040.73 186.32Q1040.34 185.86 1039.70 185.86Q1039.02 185.86 1038.64 186.31Q1038.26 186.77 1038.26 187.56" fill="white" fill-opacity="0.7"/>
<path d="M1056.40 197.88Q1054.07 197.88 1052.64 196.48Q1051.22 195.07 1051.22 192.60L1051.22 189.48Q1051.22 187.01 1052.64 185.60Q1054.07 184.20 1056.40 184.20Q1057.96 184.20 1059.12 184.82Q1060.29 185.45 1060.94 186.58Q1061.58 187.70 1061.58 189.24L1061.58 191.59L1053.33 191.59L1053.33 192.84Q1053.33 194.30 1054.17 195.16Q1055.01 196.01 1056.40 196.01Q1057.60 196.01 1058.38 195.54Q1059.16 195.07 1059.33 194.28L1061.49 194.28Q1061.27 195.94 1059.88 196.91Q1058.49 197.88 1056.40 197.88M1053.33 189.24L1053.33 189.91L1059.47 189.91L1059.47 189.24Q1059.47 187.68 1058.67 186.83Q1057.86 185.98 1056.40 185.98Q1054.94 185.98 1054.13 186.83Q1053.33 187.68 1053.33 189.24" fill="white" fill-opacity="0.7"/>
<path d="M1067.97 197.64L1065.81 197.64L1065.81 184.44L1067.97 184.44L1067.97 186.96L1067.99 186.96Q1068.16 185.64 1069.07 184.92Q1069.98 184.20 1071.50 184.20Q1073.49 184.20 1074.66 185.42Q1075.84 186.65 1075.84 188.76L1075.84 197.64L1073.68 197.64L1073.68 189.14Q1073.68 187.63 1072.92 186.83Q1072.17 186.02 1070.87 186.02Q1069.53 186.02 1068.75 186.86Q1067.97 187.70 1067.97 189.24" fill="white" fill-opacity="0.7"/>
<path d="M1090.36 197.64L1086.52 197.64Q1084.89 197.64 1083.90 196.69Q1082.92 195.74 1082.92 194.16L1082.92 186.41L1079.13 186.41L1079.13 184.44L1082.92 184.44L1082.92 180.72L1085.08 180.72L1085.08 184.44L1090.48 184.44L1090.48 186.41L1085.08 186.41L1085.08 194.16Q1085.08 194.83 1085.48 195.25Q1085.87 195.67 1086.52 195.67L1090.36 195.67" fill="white" fill-opacity="0.7"/>
<path d="M74.85 229.64L72.69 229.64L72.69 216.44L74.85 216.44L74.85 218.96L74.90 218.96Q75.06 217.69 75.98 216.94Q76.89 216.20 78.42 216.20Q80.49 216.20 81.60 217.44Q82.72 218.67 82.72 220.95L82.72 222.08L80.56 222.08L80.56 220.95Q80.56 218.07 77.75 218.07Q76.34 218.07 75.59 218.89Q74.85 219.70 74.85 221.24" fill="white" fill-opacity="0.7"/>
<path d="M91.60 229.88Q89.27 229.88 87.84 228.48Q86.42 227.07 86.42 224.60L86.42 221.48Q86.42 219.01 87.84 217.60Q89.27 216.20 91.60 216.20Q93.16 216.20 94.32 216.82Q95.49 217.45 96.14 218.58Q96.78 219.70 96.78 221.24L96.78 223.59L88.53 223.59L88.53 224.84Q88.53 226.30 89.37 227.16Q90.21 228.01 91.60 228.01Q92.80 228.01 93.58 227.54Q94.36 227.07 94.53 226.28L96.69 226.28Q96.47 227.94 95.08 228.91Q93.69 229.88 91.60 229.88M88.53 221.24L88.53 221.91L94.67 221.91L94.67 221.24Q94.67 219.68 93.87 218.83Q93.06 217.98 91.60 217.98Q90.14 217.98 89.33 218.83Q88.53 219.68 88.53 221.24" fill="white" fill-opacity="0.7"/>
<path d="M106.19 229.88Q103.79 229.88 102.35 228.54Q100.91 227.19 100.91 224.84L100.91 221.24Q100.91 218.89 102.35 217.54Q103.79 216.20 106.19 216.20Q108.47 216.20 109.88 217.42Q111.28 218.65 111.35 220.76L109.19 220.76Q109.12 219.49 108.33 218.80Q107.54 218.12 106.19 218.12Q104.78 218.12 103.92 218.92Q103.07 219.73 103.07 221.22L103.07 224.84Q103.07 226.33 103.92 227.14Q104.78 227.96 106.19 227.96Q107.54 227.96 108.33 227.26Q109.12 226.57 109.19 225.32L111.35 225.32Q111.28 227.43 109.88 228.66Q108.47 229.88 106.19 229.88" fill="white" fill-opacity="0.7"/>
<path d="M120.40 229.83Q118.02 229.83 116.62 228.44Q115.22 227.05 115.22 224.55L115.22 221.53Q115.22 219.01 116.61 217.63QNaN 216.25 120.40 216.25Q122.80 216.25 124.19 217.63Q125.58 219.01 125.58 221.53L125.58 224.55Q125.58 227.05 124.18 228.44Q122.78 229.83 120.40 229.83M120.40 227.91Q121.82 227.91 122.62 227.12Q123.42 226.33 123.42 224.79L123.42 221.29Q123.42 219.75 122.62 218.96Q121.82 218.17 120.40 218.17Q119.01 218.17 118.19 218.96Q117.38 219.75 117.38 221.29L117.38 224.79Q117.38 226.33 118.19 227.12Q119.01 227.91 120.40 227.91" fill="white" fill-opacity="0.7"/>
<path d="M132.45 229.64L130.29 229.64L130.29 216.44L132.45 216.44L132.45 218.96L132.50 218.96Q132.66 217.69 133.58 216.94Q134.49 216.20 136.02 216.20Q138.09 216.20 139.20 217.44Q140.32 218.67 140.32 220.95L140.32 222.08L138.16 222.08L138.16 220.95Q138.16 218.07 135.35 218.07Q133.94 218.07 133.19 218.89Q132.45 219.70 132.45 221.24" fill="white" fill-opacity="0.7"/>
<path d="M148.43 229.88Q146.46 229.88 145.28 228.56Q144.09 227.24 144.09 224.98L144.09 221.12Q144.09 218.84 145.26 217.52Q146.44 216.20 148.43 216.20Q149.92 216.20 150.89 216.94Q151.86 217.69 152.06 218.96L152.08 218.96L152.03 215.96L152.03 212.12L154.19 212.12L154.19 229.64L152.03 229.64L152.03 227.12L152.01 227.12Q151.84 228.42 150.88 229.15Q149.92 229.88 148.43 229.88M149.15 228.01Q150.50 228.01 151.26 227.17Q152.03 226.33 152.03 224.84L152.03 221.24Q152.03 219.75 151.26 218.91Q150.50 218.07 149.15 218.07Q147.78 218.07 147.02 218.78Q146.25 219.49 146.25 221.12L146.25 224.96Q146.25 226.57 147.02 227.29Q147.78 228.01 149.15 228.01" fill="white" fill-opacity="0.7"/>
<path d="M164.13 229.83L163.07 229.83Q160.86 229.83 159.65 228.84Q158.44 227.84 158.44 226.02L160.60 226.02Q160.60 226.93 161.25 227.44Q161.90 227.96 163.07 227.96L164.13 227.96Q165.33 227.96 165.99 227.43Q166.65 226.90 166.65 225.94Q166.65 224.24 165.09 224.02L161.44 223.50Q160.10 223.30 159.35 222.38Q158.61 221.46 158.61 219.94Q158.61 218.22 159.80 217.23Q160.98 216.25 163.07 216.25L164.13 216.25Q166.05 216.25 167.26 217.20Q168.47 218.14 168.57 219.68L166.38 219.68Q166.34 218.98 165.72 218.53Q165.11 218.07 164.13 218.07L163.07 218.07Q161.97 218.07 161.34 218.58Q160.72 219.08 160.72 219.94Q160.72 221.34 161.99 221.53L165.40 222.01Q168.76 222.49 168.76 225.94Q168.76 227.79 167.55 228.81Q166.34 229.83 164.13 229.83" fill="white" fill-opacity="0.7"/>
<path d="MNaN 229.88Q177.11 229.88 176.57 229.35Q176.03 228.82 176.03 227.98Q176.03 227.10 176.57 226.54Q177.11 225.99 NaN 225.99Q178.89 225.99 179.43 226.54Q179.97 227.10 179.97 227.98Q179.97 228.82 179.43 229.35Q178.89 229.88 NaN 229.88" fill="white" fill-opacity="0.7"/>
<path d="M76.11 136.06L66.42 136.06L84.56 65.98L97.14 65.98L115.18 136.06L105.49 136.06L101.07 117.82L80.53 117.82L76.11 136.06M87.54 88.92L82.45 109.95L99.15 109.95L94.16 89.02Q92.72 83.26 91.86 79.23Q90.99 75.20 90.80 73.76Q90.61 75.20 89.74 79.23Q88.88 83.26 87.54 88.92M137.55 136.06L128.05 136.06L128.05 65.98L150.80 65.98Q157.52 65.98 162.42 68.57Q167.31 71.16 170 75.82Q172.69 80.48 172.69 86.91Q172.69 93.24 170 97.90Q167.31 102.56 162.37 105.15Q157.42 107.74 150.80 107.74L137.55 107.74L137.55 136.06M137.55 74.43L137.55 99.29L150.80 99.29Q156.37 99.29 159.63 95.88Q162.90 92.48 162.90 86.91Q162.90 81.24 159.63 77.84Q156.37 74.43 150.80 74.43L137.55 74.43M225.10 136.06L186.90 136.06L186.90 127.42L201.20 127.42L201.20 74.62L186.90 74.62L186.90 65.98L225.10 65.98L225.10 74.62L210.80 74.62L210.80 127.42L225.10 127.42L225.10 136.06M263.98 137.02Q253.62 137.02 247.47 131.60Q241.33 126.17 241.33 116.67L250.83 116.67Q250.83 122.24 254.38 125.40Q257.94 128.57 263.98 128.57Q269.74 128.57 273.15 125.36Q276.56 122.14 276.56 116.76Q276.56 112.73 274.35 109.71Q272.14 106.68 268.11 105.63L257.74 102.84Q250.93 100.92 246.94 95.88Q242.96 90.84 242.96 83.93Q242.96 78.27 245.50 74Q248.05 69.72 252.66 67.37Q257.26 65.02 263.31 65.02Q269.46 65.02 274.11 67.37Q278.77 69.72 281.36 73.95Q283.95 78.17 283.95 83.74L274.54 83.74Q274.54 79.13 271.42 76.25Q268.30 73.37 263.31 73.37Q258.32 73.37 255.30 76.25Q252.27 79.13 252.27 83.74Q252.27 87.48 254.29 90.03Q256.30 92.57 259.95 93.63L270.61 96.51Q277.81 98.43 281.84 103.85Q285.87 109.28 285.87 116.76Q285.87 122.91 283.18 127.47Q280.50 132.03 275.55 134.52Q270.61 137.02 263.98 137.02M342.51 136.06L301.71 136.06L301.71 65.98L342.51 65.98L342.51 74.52L311.12 74.52L311.12 95.36L339.15 95.36L339.15 103.61L311.12 103.61L311.12 127.52L342.51 127.52L342.51 136.06M383.60 136.06L374.10 136.06L374.10 74.62L355.09 74.62L355.09 65.98L402.51 65.98L402.51 74.62L383.60 74.62L383.60 136.06M436.40 137.02Q426.51 137.02 421.18 131.55Q415.86 126.08 415.86 116.67L415.86 65.98L425.36 65.98L425.36 116.67Q425.36 122.24 428.10 125.40Q430.83 128.57 436.40 128.57Q441.87 128.57 444.70 125.40Q447.54 122.24 447.54 116.67L447.54 65.98L457.04 65.98L457.04 116.67Q457.04 126.17 451.71 131.60Q446.38 137.02 436.40 137.02M551.98 137.02Q542.29 137.02 536.58 131.60Q530.86 126.17 530.86 116.67L530.86 85.28Q530.86 75.87 536.58 70.44Q542.29 65.02 551.98 65.02Q561.58 65.02 567.30 70.49Q573.01 75.96 573.01 85.28L563.50 85.28Q563.50 79.61 560.43 76.54Q557.36 73.47 551.98 73.47Q546.51 73.47 543.44 76.54Q540.37 79.61 540.37 85.28L540.37 116.67Q540.37 122.43 543.44 125.50Q546.51 128.57 551.98 128.57Q557.36 128.57 560.43 125.50Q563.50 122.43 563.50 116.67L563.50 107.55L549.87 107.55L549.87 99.10L573.01 99.10L573.01 116.67Q573.01 126.08 567.30 131.55Q561.58 137.02 551.98 137.02M609.20 137.02Q599.60 137.02 594.03 131.45Q588.46 125.88 588.46 115.71L588.46 86.24Q588.46 76.16 594.03 70.59Q599.60 65.02 609.20 65.02Q618.80 65.02 624.37 70.54Q629.94 76.06 629.94 86.24L629.94 115.71Q629.94 125.88 624.37 131.45Q618.80 137.02 609.20 137.02M609.20 128.57Q614.58 128.57 617.50 125.50Q620.43 122.43 620.43 116.67L620.43 85.28Q620.43 79.61 617.55 76.54Q614.67 73.47 609.20 73.47Q603.73 73.47 600.85 76.54Q597.97 79.61 597.97 85.28L597.97 116.67Q597.97 122.43 600.90 125.50Q603.82 128.57 609.20 128.57M673.14 136.06L660.37 136.06L642.42 65.98L652.21 65.98L663.82 113.21Q664.98 117.72 665.79 121.90Q666.61 126.08 666.99 128.28Q667.28 126.08 668.19 121.85Q669.10 117.63 670.16 113.12L681.39 65.98L691.18 65.98L673.14 136.06M771.15 136.06L761.65 136.06L761.65 65.98L784.40 65.98Q791.12 65.98 796.02 68.57Q800.91 71.16 803.60 75.82Q806.29 80.48 806.29 86.91Q806.29 93.24 803.60 97.90Q800.91 102.56 795.97 105.15Q791.02 107.74 784.40 107.74L771.15 107.74L771.15 136.06M771.15 74.43L771.15 99.29L784.40 99.29Q789.97 99.29 793.23 95.88Q796.50 92.48 796.50 86.91Q796.50 81.24 793.23 77.84Q789.97 74.43 784.40 74.43L771.15 74.43M824.91 136.06L815.22 136.06L833.36 65.98L845.94 65.98L863.98 136.06L854.29 136.06L849.87 117.82L829.33 117.82L824.91 136.06M836.34 88.92L831.25 109.95L847.95 109.95L842.96 89.02Q841.52 83.26 840.66 79.23Q839.79 75.20 839.60 73.76Q839.41 75.20 838.54 79.23Q837.68 83.26 836.34 88.92M885.58 136.06L876.66 136.06L876.66 65.98L888.94 65.98L909.87 125.12Q909.58 122.62 909.34 118.92Q909.10 115.23 908.96 111.24Q908.82 107.26 908.82 103.71L908.82 65.98L917.84 65.98L917.84 136.06L905.46 136.06L884.72 76.92Q884.91 79.42 885.10 83.02Q885.30 86.62 885.44 90.56Q885.58 94.49 885.58 97.95" fill="url(#paint2_linear_0_1)"/>
<g id="Group 1">
<rect id="Rectangle 1" x="26" y="168" width="12" height="184" rx="5" fill="url(#paint3_linear_0_1)" fill-opacity="0.9"/>
</g>
<g id="Group 1_2">
<rect id="Rectangle 2" x="26" y="38" width="12" height="119" rx="5" fill="url(#paint4_linear_0_1)" fill-opacity="0.9"/>
</g>
<ellipse id="Ellipse 1" cx="148.5" cy="573" rx="215.5" ry="214" fill="url(#paint5_linear_0_1)" fill-opacity="0.4"/>
<rect id="Rectangle 3" x="1229" y="48" width="300" height="300" rx="25" fill="#FFFBFB" fill-opacity="0.9"/>
<g id="placeholder-logo"><g transform="translate(1229,48) translate(0.0,60.0) scale(1.2000)"><g fill="#666666">
  <path d="m88.05,27.65c-3.15,4 -3.2,51.2 -0.05,54.35c2.75,2.75 71.7,3.15 74.45,0.45c2.85,-2.9 2.3,-53.85 -0.65,-55.9c-1.95,-1.35 -7.15,-1.55 -36.95,-1.55l-34.7,0l-2.1,2.65zm69.45,3.35c0.65,0 1,8.6 1,23.75l0,23.75l-33,0l-33,0l-0.25,-23c-0.15,-12.6 -0.1,-23.45 0.15,-24.1c0.35,-0.85 8.9,-1.05 32.25,-0.75c17.55,0.2 32.3,0.35 32.85,0.35z"/>
  <path d="m99.15,37.3c-6.85,7.35 4.25,17.35 11.4,10.25c1.35,-1.35 2.45,-3.65 2.45,-5.05c0,-6.45 -9.35,-9.95 -13.85,-5.2z"/>
  <path d="m135,42.5c-0.7,0.85 -5.25,5.15 -10.1,9.6l-8.85,8.1l-3.2,-3.2l-3.15,-3.15l-6.35,6.3c-5.55,5.5 -6.35,6.75 -6.35,10.05l0,3.8l28.5,0l28.5,0l0,-8.6l0,-8.55l-8.15,-7.7c-9.35,-8.85 -9.15,-8.7 -10.85,-6.65zm7.25,15.2c0.95,0.9 1.75,2.9 1.75,4.45c6.35,-5.05 4.75,-7.15 4.9,-11.55c0.95,0 0,0 0,0l-6.65,7.1z"/>
  <path d="m53.65,110.75c0.1,4.8 0.45,8.65 0.75,8.5c0.35,-0.15 1.3,-0.25 2.1,-0.25c1.1,0 1.5,-1.2 1.5,-4.75l0,-4.75l3.25,5c4.9,7.5 6.2,6.75 6.55,-3.75c0.25,-8.15 0.15,-8.75 -1.7,-8.75c-1.65,0 -2.05,0.8 -2.3,4.75l-0.3,4.75l-2.8,-4.75c-4.85,-8.25 -7.25,-6.9 -7.05,4z"/>
  <path d="m91,108.9c0,9.65 0.3,10.1 6.1,10.1c5.8,0 7.15,-2.65 1.65,-3.2l-3.25,-0.3l-0.3,-6.75c-0.25,-5.95 -0.55,-6.75 -2.25,-6.75c-1.75,0 -1.95,0.7 -1.95,6.9z"/>
  <path d="m151,102.45c0,0.25 1,2.15 2.25,4.2c1.2,2.1 2.45,5.8 2.75,8.25c0.65,5.9 4,6.95 4,1.25c0.05,-2.1 1.25,-5.85 2.95,-8.9l2.9,-5.25l-2.5,0c-1.8,0 -2.8,0.85 -3.75,3.1l-1.3,3.05l-1.25,-3.05c-1.1,-2.6 -6.05,-4.8 -6.05,-2.65z"/>
  <path d="m191,107.45c0,9.05 3.4,8.85 4.25,-0.2c0.45,-5 0.35,-5.25 -1.9,-5.25c-2.2,0 -2.35,0.4 -2.35,5.45z"/>
  <path d="m180.8,104.75c-1.3,5.35 0.65,13.6 3.45,14.35c2.3,0.6 2.75,0.4 2.75,-1.2c0,-1.05 -0.45,-1.9 -1,-1.9c-0.55,0 -1,-1.6 -1,-3.5c0,-1.95 0.45,-3.5 1,-3.5c0.55,0 1,-0.7 1,-1.5c0,-0.85 -0.45,-1.5 -1,-1.5c-0.55,0 -1,-0.7 -1,-1.5c0,-2.1 -3.65,-1.9 -4.2,0.25z"/>
  <path d="m71.55,106.55c-2.2,2.25 -2.05,9.7 0.3,11.8c4.5,4.1 10.15,0.75 10.15,-6.1c0,-4.85 -2,-7.25 -6,-7.25c-1.55,0 -3.55,0.7 -4.45,1.55zm6.25,5.8c0.25,3.05 0,3.65 -1.6,3.65c-2.3,0 -3.25,-2.65 -2.05,-5.85c1.25,-3.35 3.3,-2.1 3.65,2.2z"/>
  <path d="m105.75,106.1c-2.5,1.45 -2.45,9.95 0.1,12.25c4.3,3.9 10.15,0.35 10.15,-6.2c0,-6 -5.15,-9.05 -10.25,-6.05zm6.05,6.25c0.25,3.05 0,3.65 -1.6,3.65c-2.3,0 -3.25,-2.65 -2.05,-5.85c1.25,-3.35 3.3,-2.1 3.65,2.2z"/>
  <path d="m119.2,106.2c-3.8,3.8 -0.4,12.55 4.4,11.35c1.9,-0.45 2.45,-0.3 2.15,0.65c-0.25,0.7 -1.55,1.2 -2.85,1.1c-4.05,-0.3 -5.35,0.45 -3.85,2.25c0.85,1.05 2.6,1.45 5.35,1.25l4.1,-0.3l0.3,-8.75l0.3,-8.75l-4.35,0c-2.4,0 -4.9,0.55 -5.55,1.2zm6.6,4.45c0.4,2.85 -2.15,4.85 -3.75,2.95c-0.9,-1.1 -0.9,-2 -0.05,-3.6c1.35,-2.5 3.4,-2.15 3.8,0.65z"/>
  <path d="m133.55,106.55c-2.2,2.25 -2.05,9.7 0.3,11.8c4.5,4.1 10.15,0.75 10.15,-6.1c0,-4.85 -2,-7.25 -6,-7.25c-1.55,0 -3.55,0.7 -4.45,1.55zm6.25,5.8c0.25,3.05 0,3.65 -1.6,3.65c-2.3,0 -3.25,-2.65 -2.05,-5.85c1.25,-3.35 3.3,-2.1 3.65,2.2z"/>
  <path d="m167.65,106.85c-3.9,4.3 -0.75,13.15 4.7,13.15c2.4,0 5.65,-2.75 5.65,-4.85c0,-1.4 -2.65,-1.55 -3.5,-0.15c-0.95,1.55 -4.5,1.15 -4.5,-0.5c0,-1.1 1.1,-1.5 4,-1.5c3.15,0 4,-0.35 4,-1.8c0,-5.3 -6.85,-8.25 -10.35,-4.35z"/>
  <path d="m191,117.5c0,2.15 0.4,2.6 2.25,2.3c1.5,-0.2 2.25,-1 2.25,-2.3c0,-1.3 -0.75,-2.1 -2.25,-2.3c-1.85,-0.3 -2.25,0.15 -2.25,2.3z"/>
 </g></g></g>
</g>
<defs>
<linearGradient id="paint0_linear_0_1" x1="0" y1="198" x2="1584" y2="198" gradientUnits="userSpaceOnUse">
<stop stop-color="#3D052C"/>
<stop offset="1"/>
</linearGradient>
<linearGradient id="paint1_linear_0_1" x1="323" y1="-224" x2="323" y2="352" gradientUnits="userSpaceOnUse">
<stop stop-color="#28F6F2" stop-opacity="0.4"/>
<stop offset="1" stop-color="#17908E" stop-opacity="0.7"/>
</linearGradient>
<linearGradient id="paint2_linear_0_1" x1="148.5" y1="38" x2="148.5" y2="140" gradientUnits="userSpaceOnUse">
<stop stop-color="white"/>
<stop offset="1" stop-color="#999999"/>
</linearGradient>
<linearGradient id="paint3_linear_0_1" x1="38" y1="260" x2="26" y2="260" gradientUnits="userSpaceOnUse">
<stop stop-color="#D9D9D9"/>
<stop offset="1" stop-color="#737373"/>
</linearGradient>
<linearGradient id="paint4_linear_0_1" x1="38" y1="97.5" x2="26" y2="97.5" gradientUnits="userSpaceOnUse">
<stop stop-color="#D9D9D9"/>
<stop offset="1" stop-color="#737373"/>
</linearGradient>
<linearGradient id="paint5_linear_0_1" x1="27.5" y1="434.5" x2="148.5" y2="787" gradientUnits="userSpaceOnUse">
<stop stop-color="#2E21BC"/>
<stop offset="1" stop-color="#150F56"/>
</linearGradient>
<clipPath id="clip0_0_1">
<rect width="1584" height="396" fill="white"/>
</clipPath>
</defs>
</svg>
